<svg width="51" height="51" viewBox="0 0 51 51" fill="none" xmlns="http://www.w3.org/2000/svg">
<rect width="51" height="51" rx="25.5" fill="white"/>
<path d="M19.2803 14.4123C20.2194 14.7292 21.1126 15.1689 21.9365 15.7198C23.1009 15.4218 24.2984 15.2722 25.5003 15.2748C26.7415 15.2748 27.939 15.4298 29.0615 15.7185C29.8852 15.1681 30.7779 14.7289 31.7165 14.4123C32.5878 14.116 33.829 13.636 34.5665 14.4523C35.0665 15.0073 35.1915 15.9373 35.2803 16.6473C35.3803 17.4398 35.404 18.4723 35.1415 19.4973C36.1453 20.7935 36.7503 22.3398 36.7503 24.0248C36.7503 26.5773 35.3678 28.7935 33.3215 30.3285C32.3363 31.0572 31.2442 31.629 30.084 32.0235C30.3515 32.636 30.5003 33.3135 30.5003 34.0248V37.7748C30.5003 38.1063 30.3686 38.4243 30.1342 38.6587C29.8997 38.8931 29.5818 39.0248 29.2503 39.0248H21.7503C21.4188 39.0248 21.1008 38.8931 20.8664 38.6587C20.632 38.4243 20.5003 38.1063 20.5003 37.7748V36.536C19.3065 36.6823 18.3053 36.5523 17.454 36.191C16.564 35.8135 15.944 35.2285 15.4778 34.6685C15.0353 34.1385 14.5528 32.9435 13.8553 32.711C13.6995 32.6592 13.5555 32.5771 13.4314 32.4696C13.3073 32.3621 13.2056 32.2311 13.1322 32.0843C12.9838 31.7878 12.9593 31.4444 13.064 31.1298C13.1688 30.8152 13.3942 30.5551 13.6908 30.4067C13.9873 30.2583 14.3307 30.2338 14.6453 30.3385C15.4778 30.616 16.0203 31.216 16.3915 31.6985C16.9915 32.4735 17.479 33.486 18.429 33.8898C18.8203 34.056 19.394 34.1648 20.2915 34.0423L20.5003 33.9998C20.5032 33.3196 20.6448 32.6471 20.9165 32.0235C19.7564 31.629 18.6643 31.0572 17.679 30.3285C15.6328 28.7935 14.2503 26.5785 14.2503 24.0248C14.2503 22.3423 14.854 20.7973 15.8553 19.5023C15.5928 18.4773 15.6153 17.4423 15.7153 16.6485L15.7215 16.601C15.8128 15.8735 15.919 15.0173 16.429 14.4523C17.1665 13.636 18.409 14.1173 19.279 14.4135L19.2803 14.4123Z" fill="black"/>
</svg>
