<svg width="51" height="51" viewBox="0 0 51 51" fill="none" xmlns="http://www.w3.org/2000/svg">
<rect width="51" height="51" rx="25.5" fill="white"/>
<path d="M35.8838 15.9228C33.9837 15.0705 31.9265 14.4519 29.7836 14.0945C29.7459 14.095 29.71 14.1098 29.6836 14.1357C29.4265 14.5894 29.1265 15.1805 28.9265 15.6341C26.6535 15.3044 24.3421 15.3044 22.0691 15.6341C21.8691 15.1667 21.5691 14.5894 21.2977 14.1357C21.2834 14.1082 21.2405 14.0945 21.1977 14.0945C19.0548 14.4519 17.0118 15.0705 15.0975 15.9228C15.0832 15.9228 15.0689 15.9365 15.0546 15.9503C11.1688 21.5451 10.0974 26.9886 10.626 32.3772C10.626 32.4047 10.6402 32.4322 10.6688 32.446C13.2403 34.2605 15.7118 35.3602 18.1547 36.0888C18.1976 36.1025 18.2404 36.0888 18.2547 36.0613C18.8262 35.3052 19.3405 34.5079 19.7833 33.6694C19.8119 33.6144 19.7833 33.5594 19.7262 33.5457C18.9119 33.2433 18.1404 32.8859 17.3833 32.4735C17.3261 32.446 17.3261 32.3635 17.369 32.3223C17.5261 32.2123 17.6833 32.0886 17.8404 31.9786C17.869 31.9511 17.9119 31.9511 17.9404 31.9649C22.8549 34.123 28.155 34.123 33.0123 31.9649C33.0409 31.9511 33.0837 31.9511 33.1123 31.9786C33.2694 32.1023 33.4266 32.2123 33.5837 32.336C33.6409 32.3773 33.6409 32.4597 33.5694 32.4872C32.8266 32.9134 32.0408 33.257 31.2265 33.5594C31.1694 33.5732 31.1551 33.6419 31.1694 33.6832C31.6265 34.5217 32.1408 35.319 32.698 36.075C32.7408 36.0888 32.7837 36.1025 32.8266 36.0888C35.2838 35.3602 37.7553 34.2605 40.3268 32.446C40.3553 32.4322 40.3696 32.4047 40.3696 32.3772C40.9982 26.1501 39.3267 20.7478 35.9409 15.9503C35.9266 15.9365 35.9124 15.9228 35.8838 15.9228ZM20.5262 29.0919C19.0548 29.0919 17.8262 27.7859 17.8262 26.1776C17.8262 24.5693 19.0262 23.2634 20.5262 23.2634C22.0406 23.2634 23.2406 24.583 23.2263 26.1776C23.2263 27.7859 22.0263 29.0919 20.5262 29.0919ZM30.4836 29.0919C29.0122 29.0919 27.7836 27.7859 27.7836 26.1776C27.7836 24.5693 28.9836 23.2634 30.4836 23.2634C31.998 23.2634 33.198 24.583 33.1837 26.1776C33.1837 27.7859 31.998 29.0919 30.4836 29.0919Z" fill="black"/>
</svg>
