<svg width="51" height="51" viewBox="0 0 51 51" fill="none" xmlns="http://www.w3.org/2000/svg">
<rect width="51" height="51" rx="25.5" fill="white"/>
<path d="M25.5 32.952C30.8513 32.952 35.1874 28.6159 35.1874 23.2646C35.1874 17.9132 30.8513 13.5771 25.5 13.5771C20.1486 13.5771 15.8125 17.9132 15.8125 23.2646C15.8125 28.6159 20.1486 32.952 25.5 32.952ZM24.466 18.1135V17.331C24.466 16.9025 24.8107 16.5579 25.2391 16.5579H25.7561C26.1846 16.5579 26.5293 16.9025 26.5293 17.331V18.1228C27.2512 18.16 27.9498 18.4069 28.5319 18.84C28.7928 19.031 28.8207 19.4129 28.5878 19.6364L27.8287 20.3583C27.6517 20.5307 27.3862 20.5353 27.1766 20.4049C26.9251 20.2466 26.6457 20.1674 26.3476 20.1674H24.5359C24.1167 20.1674 23.7767 20.5493 23.7767 21.0197C23.7767 21.4016 24.0096 21.7416 24.3403 21.8394L27.2418 22.7103C28.4388 23.069 29.2771 24.2193 29.2771 25.5094C29.2771 27.093 28.0476 28.3737 26.5246 28.4157V29.1981C26.5246 29.6266 26.1799 29.9712 25.7515 29.9712H25.2345C24.806 29.9712 24.4614 29.6266 24.4614 29.1981V28.4063C23.7395 28.3691 23.0409 28.1222 22.4587 27.6891C22.1979 27.4982 22.1699 27.1162 22.4028 26.8927L23.1619 26.1708C23.3389 25.9985 23.6044 25.9938 23.814 26.1242C24.0655 26.2826 24.3449 26.3617 24.643 26.3617H26.4547C26.8739 26.3617 27.2139 25.9798 27.2139 25.5094C27.2139 25.1275 26.981 24.7875 26.6503 24.6897L23.7488 23.8188C22.5518 23.4602 21.7135 22.3098 21.7135 21.0197C21.7181 19.4362 22.943 18.1554 24.466 18.1135ZM35.9326 29.9712H34.4189C33.5061 31.1822 32.3417 32.1928 31.019 32.952H33.9904C34.2373 32.952 34.4375 33.1196 34.4375 33.3246V34.0698C34.4375 34.2747 34.2373 34.4424 33.9904 34.4424H17.0048C16.758 34.4424 16.5577 34.2747 16.5577 34.0698V33.3246C16.5577 33.1196 16.758 32.952 17.0048 32.952H19.9763C18.6536 32.1928 17.4939 31.1822 16.5764 29.9712H15.0674C14.243 29.9712 13.577 30.6372 13.577 31.4616V35.9327C13.577 36.7571 14.243 37.4231 15.0674 37.4231H35.9326C36.7569 37.4231 37.4229 36.7571 37.4229 35.9327V31.4616C37.4229 30.6372 36.7569 29.9712 35.9326 29.9712Z" fill="#080808"/>
</svg>
