<svg width="1150" height="200" viewBox="0 0 115 20" fill="none" xmlns="http://www.w3.org/2000/svg">
<g>
<path d="M105.895 6.89517L109.645 0H114.383L108.559 9.91636L114.534 19.9984H109.74L105.895 12.999L102.05 19.9984H97.25L103.225 9.91636L97.4071 0H102.145L105.895 6.89517Z" fill="white"/>
<path d="M11.0848 15.9987L10.1706 19.9984L0 10.9706L0.914213 7.54226H12.6847L13.4275 10.9706H5.371L11.0848 15.9987Z" fill="white"/>
<path d="M0.457117 0H13.7132L12.799 3.4283H4.11397L0.457117 0Z" fill="white"/>
<path d="M27.5107 7.54226L20.1641 19.9598H16.623L13.9989 7.54226H17.3872L19.1013 16.013L24.0724 7.54226H27.5107Z" fill="white"/>
<path d="M28.2477 19.3113C27.3781 18.8838 26.6519 18.2122 26.1579 17.3786C25.6556 16.4988 25.4028 15.4988 25.4265 14.486C25.4069 13.2055 25.7258 11.9426 26.3507 10.8249C26.9532 9.75558 27.8351 8.87026 28.902 8.26363C30.0191 7.63038 31.2848 7.30642 32.5688 7.32513C33.7716 7.32513 34.8191 7.55416 35.7114 8.01222C36.5764 8.44216 37.2983 9.11344 37.7898 9.94492C38.2939 10.8247 38.5488 11.8252 38.5269 12.839C38.5467 14.1176 38.232 15.3791 37.6141 16.4987C37.0161 17.5713 36.1332 18.4577 35.0629 19.0599C33.9409 19.6925 32.6712 20.0164 31.3832 19.9984C30.2983 20.0218 29.2234 19.7863 28.2477 19.3113ZM33.3902 16.533C33.9254 16.1805 34.3518 15.6859 34.6215 15.1045C34.9234 14.4445 35.0719 13.7246 35.0558 12.999C35.0558 12.16 34.821 11.4962 34.3515 11.0077C33.882 10.5192 33.2221 10.2754 32.3717 10.2763C31.7332 10.266 31.1059 10.4449 30.569 10.7906C30.0333 11.1429 29.6064 11.6376 29.3362 12.219C29.0326 12.8782 28.8821 13.5975 28.8963 14.3231C28.8963 15.1631 29.1343 15.8268 29.6105 16.3144C30.0866 16.802 30.7504 17.0458 31.6018 17.0458C32.2336 17.0546 32.8539 16.8762 33.3845 16.533H33.3902Z" fill="white"/>
<path d="M41.4681 2.11126H44.8964L41.5567 19.9513H38.1284L41.4681 2.11126Z" fill="white"/>
<path d="M56.9954 7.54226L54.6413 19.8156H51.3788L51.5002 19.1485C51.1031 19.5599 50.6531 19.6827 50.1289 19.8156C49.4432 19.9898 48.5047 19.9984 47.7719 19.9984C46.4806 19.9984 45.4502 19.6332 44.6807 18.9028C43.9113 18.1724 43.5261 17.1458 43.5251 15.823C43.5248 15.3248 43.5765 14.8278 43.6794 14.3403L44.9778 7.54226H48.4061L47.152 14.1132C47.0933 14.4057 47.0641 14.7033 47.0648 15.0017C47.0648 16.2797 47.7248 16.9187 49.0447 16.9187C49.9094 16.9187 50.6236 16.6563 51.1873 16.1316C51.7511 15.6069 52.1363 14.8198 52.343 13.7703L53.5529 7.54226H56.9954Z" fill="white"/>
<path d="M61.7394 15.4688C61.7055 15.6341 61.6907 15.8028 61.6951 15.9716C61.6951 16.7658 62.1131 17.1624 62.9493 17.1615C63.4035 17.1615 64.4391 16.9929 64.9091 16.703L64.2806 19.397C63.6721 19.8927 63.0892 19.9984 61.8879 19.9984C60.7728 19.9984 59.8781 19.6932 59.2038 19.0828C58.5296 18.4723 58.1944 17.6348 58.1982 16.5701C58.2034 16.2091 58.2397 15.8492 58.3068 15.4945L59.2538 10.5306H57.424L57.9525 7.78653H59.7809L60.3523 4.78676H63.7806L63.2092 7.78653H66.1561L65.629 10.5306H62.685L61.7394 15.4688Z" fill="white"/>
<path d="M67.3932 7.53226H70.8029L68.4488 19.9513H65.0391L67.3932 7.53226ZM68.2403 5.25958C68.0591 5.08996 67.9155 4.88421 67.8188 4.65562C67.7221 4.42703 67.6744 4.1807 67.6789 3.93254C67.671 3.64707 67.7227 3.36308 67.8307 3.09869C67.9387 2.8343 68.1005 2.5953 68.306 2.39695C68.7231 1.98937 69.2693 1.78557 69.9444 1.78557C70.4811 1.76195 71.0058 1.94848 71.4072 2.30553C71.5882 2.46646 71.7321 2.66474 71.829 2.8867C71.9259 3.10866 71.9736 3.349 71.9686 3.59114C71.9808 3.88838 71.9303 4.18487 71.8203 4.46128C71.7103 4.73768 71.5432 4.98779 71.33 5.1953C71.1092 5.40141 70.8497 5.5617 70.5665 5.66688C70.2833 5.77207 69.982 5.82007 69.6802 5.80811C69.4157 5.8174 69.1521 5.77365 68.9048 5.67944C68.6575 5.58523 68.4315 5.44247 68.2403 5.25958Z" fill="white"/>
<path d="M73.3642 19.3113C72.4967 18.8829 71.7725 18.2114 71.28 17.3786C70.7763 16.4993 70.5219 15.4992 70.5444 14.486C70.5244 13.2057 70.8427 11.9427 71.4672 10.8249C72.0706 9.75584 72.9528 8.87063 74.0198 8.26363C75.1385 7.62913 76.4064 7.30512 77.6924 7.32513C78.8951 7.32513 79.9427 7.55416 80.835 8.01222C81.6999 8.44216 82.4218 9.11344 82.9134 9.94493C83.4175 10.8247 83.6723 11.8252 83.6505 12.839C83.6702 14.1176 83.3556 15.3791 82.7377 16.4987C82.1392 17.5714 81.2558 18.4578 80.185 19.0599C79.0613 19.6935 77.7895 20.0174 76.4996 19.9984C75.4147 20.0217 74.3399 19.7861 73.3642 19.3113ZM78.5066 16.533C79.0423 16.1806 79.4692 15.686 79.7394 15.1045C80.0413 14.4445 80.1897 13.7246 80.1736 12.999C80.1736 12.16 79.9389 11.4962 79.4694 11.0077C78.9999 10.5192 78.34 10.2754 77.4895 10.2763C76.8506 10.266 76.2229 10.4449 75.6854 10.7906C75.1498 11.1426 74.7233 11.6374 74.4541 12.219C74.1497 12.878 73.9993 13.5975 74.0141 14.3231C74.0141 15.1631 74.2522 15.8268 74.7283 16.3144C75.2045 16.802 75.8682 17.0458 76.7196 17.0458C77.351 17.0545 77.9708 16.8761 78.5009 16.533H78.5066Z" fill="white"/>
<path d="M95.7695 8.44504C96.5466 9.17451 96.9351 10.2168 96.9351 11.5719C96.9355 12.0763 96.8838 12.5795 96.7809 13.0732L95.461 19.9513H92.0327L93.3083 13.3032C93.3693 13.0217 93.399 12.7342 93.3968 12.4462C93.3968 11.8005 93.2278 11.3081 92.8897 10.9691C92.5517 10.6301 92.046 10.4611 91.3727 10.462C90.4928 10.462 89.7633 10.7272 89.1843 11.2577C88.6053 11.7881 88.213 12.5842 88.0073 13.6461L86.8188 19.9484H83.3905L85.7446 7.5294H88.9929L88.8301 8.35076C89.1158 7.71653 90.6171 7.22085 92.6226 7.35084C93.9411 7.42798 94.9924 7.71367 95.7695 8.44504Z" fill="white"/>
</g>
</svg>
