<svg width="115" height="670" viewBox="0 0 115 670" fill="none" xmlns="http://www.w3.org/2000/svg">
<path d="M114.696 0.720282V74.3523H91.608V25.0563H69.144V69.3603H46.056V25.0563H3V0.720282L114.696 0.720282ZM81.936 120.2C81.936 126.128 80.896 131.588 78.816 136.58C76.84 141.676 74.032 146.044 70.392 149.684C66.856 153.428 62.592 156.288 57.6 158.264C52.608 160.344 47.148 161.384 41.22 161.384C35.292 161.384 29.832 160.344 24.84 158.264C19.848 156.288 15.532 153.428 11.892 149.684C8.356 146.044 5.548 141.676 3.468 136.58C1.492 131.588 0.504 126.128 0.504 120.2C0.504 114.272 1.492 108.76 3.468 103.664C5.548 98.6724 8.356 94.3044 11.892 90.5604C15.532 86.9204 19.848 84.0604 24.84 81.9804C29.832 80.0044 35.292 79.0164 41.22 79.0164C47.148 79.0164 52.608 80.0044 57.6 81.9804C62.592 84.0604 66.856 86.9204 70.392 90.5604C74.032 94.3044 76.84 98.6724 78.816 103.664C80.896 108.76 81.936 114.272 81.936 120.2ZM22.344 120.2C22.344 122.592 22.76 124.828 23.592 126.908C24.528 129.092 25.776 131.016 27.336 132.68C29 134.344 30.976 135.644 33.264 136.58C35.656 137.516 38.308 137.984 41.22 137.984C44.132 137.984 46.732 137.516 49.02 136.58C51.308 135.644 53.284 134.344 54.948 132.68C56.612 131.016 57.86 129.092 58.692 126.908C59.628 124.828 60.096 122.592 60.096 120.2C60.096 117.808 59.628 115.52 58.692 113.336C57.86 111.256 56.612 109.384 54.948 107.72C53.284 106.056 51.308 104.756 49.02 103.82C46.732 102.884 44.132 102.416 41.22 102.416C38.308 102.416 35.656 102.884 33.264 103.82C30.976 104.756 29 106.056 27.336 107.72C25.776 109.384 24.528 111.256 23.592 113.336C22.76 115.52 22.344 117.808 22.344 120.2ZM12.672 226.452V224.892C4.56 219.692 0.504 211.892 0.504 201.492C0.504 191.924 3.572 184.8 9.708 180.12C15.844 175.44 23.904 173.1 33.888 173.1H79.44V196.5H36.54C32.38 196.5 28.948 197.488 26.244 199.464C23.644 201.44 22.344 204.508 22.344 208.668C22.344 213.972 24.372 217.976 28.428 220.68C32.484 223.488 37.788 224.892 44.34 224.892H79.44V248.292H3V226.452H12.672ZM69.768 287.58V289.14C77.88 294.34 81.936 302.14 81.936 312.54C81.936 322.108 78.868 329.232 72.732 333.912C66.596 338.592 58.536 340.932 48.552 340.932H3V317.532H45.9C50.06 317.532 53.44 316.544 56.04 314.568C58.744 312.592 60.096 309.524 60.096 305.364C60.096 300.06 58.068 296.004 54.012 293.196C49.956 290.492 44.652 289.14 38.1 289.14H3V265.74H79.44V287.58H69.768ZM11.424 413.916V412.356C8.408 410.588 5.808 407.832 3.624 404.088C1.544 400.448 0.504 395.82 0.504 390.204C0.504 385.316 1.492 380.636 3.468 376.164C5.444 371.692 8.2 367.74 11.736 364.308C15.376 360.98 19.692 358.328 24.684 356.352C29.676 354.376 35.188 353.388 41.22 353.388C47.252 353.388 52.764 354.376 57.756 356.352C62.748 358.328 67.012 360.98 70.548 364.308C74.188 367.74 76.996 371.692 78.972 376.164C80.948 380.636 81.936 385.316 81.936 390.204C81.936 395.82 80.844 400.448 78.66 404.088C76.58 407.832 74.032 410.588 71.016 412.356V413.916L81.936 412.356H114.696V435.756H3V413.916H11.424ZM22.344 395.352C22.344 397.848 22.76 400.188 23.592 402.372C24.528 404.66 25.776 406.636 27.336 408.3C29 410.068 30.976 411.42 33.264 412.356C35.656 413.396 38.308 413.916 41.22 413.916C44.132 413.916 46.732 413.396 49.02 412.356C51.308 411.42 53.284 410.068 54.948 408.3C56.612 406.636 57.86 404.66 58.692 402.372C59.628 400.188 60.096 397.848 60.096 395.352C60.096 392.856 59.628 390.464 58.692 388.176C57.86 385.992 56.612 384.016 54.948 382.248C53.284 380.584 51.308 379.232 49.02 378.192C46.732 377.256 44.132 376.788 41.22 376.788C38.308 376.788 35.656 377.256 33.264 378.192C30.976 379.232 29 380.584 27.336 382.248C25.776 384.016 24.528 385.992 23.592 388.176C22.76 390.464 22.344 392.856 22.344 395.352ZM21.564 526.457C15.012 522.713 9.864 517.773 6.12 511.637C2.376 505.605 0.504 498.273 0.504 489.641C0.504 483.713 1.492 478.201 3.468 473.105C5.548 468.113 8.408 463.745 12.048 460.001C15.688 456.257 19.952 453.345 24.84 451.265C29.832 449.185 35.292 448.145 41.22 448.145C46.732 448.145 51.932 449.185 56.82 451.265C61.812 453.345 66.128 456.205 69.768 459.845C73.512 463.589 76.476 467.905 78.66 472.793C80.844 477.785 81.936 483.193 81.936 489.017C81.936 495.361 80.896 500.925 78.816 505.709C76.736 510.597 73.876 514.653 70.236 517.877C66.7 521.101 62.488 523.545 57.6 525.209C52.816 526.873 47.668 527.705 42.156 527.705C41.324 527.705 40.492 527.653 39.66 527.549C38.828 527.549 38.1 527.497 37.476 527.393C36.748 527.289 36.072 527.237 35.448 527.237V470.921C30.456 472.065 26.816 474.405 24.528 477.941C22.24 481.477 21.096 485.429 21.096 489.797C21.096 494.165 22.032 497.753 23.904 500.561C25.776 503.473 28.168 505.761 31.08 507.425L21.564 526.457ZM51.36 505.709C52.608 505.501 53.96 504.981 55.416 504.149C56.872 503.421 58.172 502.329 59.316 500.873C60.564 499.521 61.552 497.805 62.28 495.725C63.112 493.749 63.528 491.513 63.528 489.017C63.528 485.377 62.488 481.997 60.408 478.877C58.328 475.757 55.312 473.469 51.36 472.013V505.709ZM79.44 540.873V562.713H69.768V564.273C73.096 566.353 75.904 569.317 78.192 573.165C80.48 577.013 81.624 581.277 81.624 585.957C81.624 588.765 81.26 591.209 80.532 593.289C79.908 595.369 79.18 597.085 78.348 598.437L57.756 592.353C58.484 591.001 59.056 589.545 59.472 587.985C59.888 586.529 60.096 584.605 60.096 582.213C60.096 576.389 58.068 571.917 54.012 568.797C49.956 565.781 44.652 564.273 38.1 564.273H3V540.873H79.44ZM0.504 636.217C0.504 630.913 1.128 626.233 2.376 622.177C3.624 618.121 5.236 614.585 7.212 611.569C9.292 608.657 11.632 606.213 14.232 604.237C16.936 602.261 19.64 600.753 22.344 599.713L31.236 620.773C27.7 622.229 25.1 624.257 23.436 626.857C21.876 629.457 21.096 632.577 21.096 636.217C21.096 639.337 21.564 641.729 22.5 643.393C23.54 645.161 24.84 646.045 26.4 646.045C28.168 646.045 29.52 645.213 30.456 643.549C31.496 641.885 32.432 639.233 33.264 635.593L35.448 625.141C35.968 622.645 36.8 620.097 37.944 617.497C39.088 614.897 40.596 612.505 42.468 610.321C44.34 608.137 46.524 606.369 49.02 605.017C51.62 603.665 54.584 602.989 57.912 602.989C61.552 602.989 64.828 603.769 67.74 605.329C70.756 606.993 73.304 609.229 75.384 612.037C77.464 614.845 79.076 618.173 80.22 622.021C81.364 625.869 81.936 630.081 81.936 634.657C81.936 642.561 80.532 649.373 77.724 655.093C75.02 660.813 70.444 665.129 63.996 668.041L55.728 647.917C58.432 646.565 60.408 644.641 61.656 642.145C62.904 639.753 63.528 637.309 63.528 634.813C63.528 632.109 63.06 629.925 62.124 628.261C61.188 626.597 60.044 625.765 58.692 625.765C57.236 625.765 56.04 626.597 55.104 628.261C54.272 630.029 53.544 632.161 52.92 634.657L50.112 646.513C48.24 654.313 45.224 660.137 41.064 663.985C36.904 667.833 32.016 669.757 26.4 669.757C22.968 669.757 19.692 668.925 16.572 667.261C13.452 665.701 10.696 663.413 8.304 660.397C5.912 657.485 4.04 653.949 2.688 649.789C1.232 645.733 0.504 641.209 0.504 636.217Z" fill="url(#paint0_linear_1109_99)"/>
<defs>
<linearGradient id="paint0_linear_1109_99" x1="291.432" y1="306.073" x2="-9.17139" y2="311.801" gradientUnits="userSpaceOnUse">
<stop stop-color="#373C68"/>
<stop offset="1" stop-color="#999999" stop-opacity="0"/>
</linearGradient>
</defs>
</svg>
