<svg width="118" height="699" viewBox="0 0 118 699" fill="none" xmlns="http://www.w3.org/2000/svg">
<path d="M117.496 639.291C117.496 647.715 115.988 655.515 112.972 662.691C109.956 669.867 105.848 676.107 100.648 681.411C95.344 686.611 89.156 690.719 82.084 693.735C75.012 696.647 67.368 698.103 59.152 698.103C50.936 698.103 43.292 696.647 36.22 693.735C29.148 690.719 23.012 686.611 17.812 681.411C12.508 676.107 8.348 669.867 5.332 662.691C2.31599 655.515 0.807992 647.715 0.807992 639.291C0.807992 630.867 2.31599 623.067 5.332 615.891C8.348 608.715 12.508 602.527 17.812 597.327C23.012 592.023 29.148 587.915 36.22 585.003C43.292 581.987 50.936 580.479 59.152 580.479C67.368 580.479 75.012 581.987 82.084 585.003C89.156 587.915 95.344 592.023 100.648 597.327C105.848 602.527 109.956 608.715 112.972 615.891C115.988 623.067 117.496 630.867 117.496 639.291ZM94.408 639.291C94.408 634.507 93.576 630.035 91.912 625.875C90.248 621.611 87.856 617.919 84.736 614.799C81.616 611.679 77.924 609.235 73.66 607.467C69.292 605.699 64.456 604.815 59.152 604.815C53.848 604.815 49.064 605.699 44.8 607.467C40.432 609.235 36.688 611.679 33.568 614.799C30.448 617.919 28.056 621.611 26.392 625.875C24.728 630.035 23.896 634.507 23.896 639.291C23.896 644.179 24.728 648.703 26.392 652.863C28.056 657.023 30.448 660.663 33.568 663.783C36.688 666.903 40.432 669.347 44.8 671.115C49.064 672.883 53.848 673.767 59.152 673.767C64.456 673.767 69.292 672.883 73.66 671.115C77.924 669.347 81.616 666.903 84.736 663.783C87.856 660.663 90.248 657.023 91.912 652.863C93.576 648.703 94.408 644.179 94.408 639.291ZM105.328 513.223V514.783C113.44 519.983 117.496 527.783 117.496 538.183C117.496 547.751 114.428 554.875 108.292 559.555C102.156 564.235 94.096 566.575 84.112 566.575H38.56V543.175H81.46C85.62 543.175 89.052 542.187 91.756 540.211C94.356 538.235 95.656 535.167 95.656 531.007C95.656 525.703 93.628 521.699 89.572 518.995C85.516 516.187 80.212 514.783 73.66 514.783H38.56V491.383H115V513.223H105.328ZM38.56 473.936V452.096H48.232V450.536C44.904 448.456 42.096 445.492 39.808 441.644C37.52 437.796 36.376 433.532 36.376 428.852C36.376 426.044 36.74 423.6 37.468 421.52C38.092 419.44 38.82 417.724 39.652 416.372L60.244 422.456C59.516 423.808 58.944 425.264 58.528 426.824C58.112 428.28 57.904 430.204 57.904 432.596C57.904 438.42 59.932 442.892 63.988 446.012C68.044 449.028 73.348 450.536 79.9 450.536H115L115 473.936H38.56ZM115 352.818H26.392V384.018H3.304L3.304 297.282H26.392L26.392 328.482H115V352.818ZM96.436 223.425C102.988 227.169 108.136 232.109 111.88 238.245C115.624 244.277 117.496 251.609 117.496 260.241C117.496 266.169 116.508 271.681 114.532 276.777C112.452 281.769 109.592 286.137 105.952 289.881C102.312 293.625 98.048 296.537 93.16 298.617C88.168 300.697 82.708 301.737 76.78 301.737C71.268 301.737 66.068 300.697 61.18 298.617C56.188 296.537 51.872 293.677 48.232 290.037C44.488 286.293 41.524 281.977 39.34 277.089C37.156 272.097 36.064 266.689 36.064 260.865C36.064 254.521 37.104 248.957 39.184 244.173C41.264 239.285 44.124 235.229 47.764 232.005C51.3 228.781 55.512 226.337 60.4 224.673C65.184 223.009 70.332 222.177 75.844 222.177C76.676 222.177 77.508 222.229 78.34 222.333C79.172 222.333 79.9 222.385 80.524 222.489C81.252 222.593 81.928 222.645 82.552 222.645V278.961C87.544 277.817 91.184 275.477 93.472 271.941C95.76 268.405 96.904 264.453 96.904 260.085C96.904 255.717 95.968 252.129 94.096 249.321C92.224 246.409 89.832 244.121 86.92 242.457L96.436 223.425ZM66.64 244.173C65.392 244.381 64.04 244.901 62.584 245.733C61.128 246.461 59.828 247.553 58.684 249.009C57.436 250.361 56.448 252.077 55.72 254.157C54.888 256.133 54.472 258.369 54.472 260.865C54.472 264.505 55.512 267.885 57.592 271.005C59.672 274.125 62.688 276.413 66.64 277.869V244.173ZM108.136 162.384V163.944C110.84 166.44 113.076 169.3 114.844 172.524C116.612 175.644 117.496 179.7 117.496 184.692C117.496 188.54 116.872 192.18 115.624 195.612C114.376 198.94 112.608 201.904 110.32 204.504C108.032 207 105.276 208.976 102.052 210.432C98.828 211.888 95.24 212.616 91.288 212.616C87.44 212.616 83.956 211.836 80.836 210.276C77.612 208.716 74.856 206.584 72.568 203.88C70.28 201.176 68.512 198.004 67.264 194.364C66.016 190.62 65.392 186.564 65.392 182.196C65.392 177.516 65.704 173.668 66.328 170.652C66.952 167.532 67.68 164.776 68.512 162.384H66.484C63.156 162.384 60.348 163.788 58.06 166.596C55.668 169.3 54.472 172.992 54.472 177.672C54.472 184.432 57.228 190.256 62.74 195.144L51.508 211.056C46.308 206.688 42.46 201.644 39.964 195.924C37.364 190.1 36.064 183.704 36.064 176.736C36.064 164.256 38.872 154.844 44.488 148.5C50 142.156 58.424 138.984 69.76 138.984H115V162.384H108.136ZM84.892 162.384C83.956 164.776 83.228 167.168 82.708 169.56C82.188 171.848 81.928 174.24 81.928 176.736C81.928 180.896 82.812 184.016 84.58 186.096C86.244 188.176 88.428 189.216 91.132 189.216C93.836 189.216 96.02 188.228 97.684 186.252C99.244 184.276 100.024 181.676 100.024 178.452C100.024 175.852 99.608 173.564 98.776 171.588C97.84 169.508 96.644 167.792 95.188 166.44C93.732 165.088 92.12 164.1 90.352 163.476C88.48 162.748 86.66 162.384 84.892 162.384ZM38.56 122.784V100.944H48.232V99.3835C44.384 96.8875 41.42 93.7155 39.34 89.8675C37.156 85.9155 36.064 81.2875 36.064 75.9835C36.064 70.1595 37.468 65.3235 40.276 61.4755C42.98 57.6275 46.152 54.9235 49.792 53.3635C46.152 51.0755 42.98 47.7995 40.276 43.5355C37.468 39.2715 36.064 33.9155 36.064 27.4675C36.064 22.8915 36.844 18.8875 38.404 15.4555C39.86 12.0235 41.94 9.21553 44.644 7.03153C47.348 4.74352 50.572 3.02752 54.316 1.88353C58.06 0.739523 62.168 0.167521 66.64 0.167521H115L115 23.5675H71.164C67.212 23.5675 64.04 24.5035 61.648 26.3755C59.152 28.1435 57.904 30.7955 57.904 34.3315C57.904 39.4275 59.984 43.2755 64.144 45.8755C68.2 48.4755 73.66 49.7755 80.524 49.7755H115V73.1755H71.164C67.212 73.1755 64.04 74.1635 61.648 76.1395C59.152 78.0115 57.904 80.9755 57.904 85.0315C57.904 89.8155 59.984 93.4035 64.144 95.7955C68.2 98.1875 73.66 99.3835 80.524 99.3835H115V122.784H38.56Z" fill="url(#paint0_linear_1109_100)"/>
<defs>
<linearGradient id="paint0_linear_1109_100" x1="-173.432" y1="374.43" x2="127.18" y2="368.919" gradientUnits="userSpaceOnUse">
<stop stop-color="#373C68"/>
<stop offset="1" stop-color="#999999" stop-opacity="0"/>
</linearGradient>
</defs>
</svg>
