<svg width="110" height="110" viewBox="0 0 110 110" fill="none" xmlns="http://www.w3.org/2000/svg">
<rect width="110" height="110" rx="55" fill="url(#paint0_linear_1136_99)"/>
<path d="M37.1251 42.9186H41.2821L49.8838 65.814H45.8867L43.8082 59.9302H34.5989L32.5205 65.814H28.5234L37.1251 42.9186ZM42.5931 56.6366L40.1949 49.8896L39.2995 47.2035H39.1077L38.2123 49.8896L35.8141 56.6366H42.5931ZM56.3384 65.814V48.2268L52.2773 49.9855L50.9343 46.9477L57.3616 43.9419H59.8878V65.814H56.3384ZM71.7531 66.3256C70.9857 66.3256 70.2076 66.2083 69.4188 65.9738C68.6301 65.7394 67.884 65.3876 67.1805 64.9186C66.4983 64.4283 65.8907 63.8101 65.3578 63.064C64.8248 62.3178 64.4305 61.4332 64.1747 60.4099L67.3723 59.1308C67.6495 60.2607 68.1504 61.188 68.8752 61.9128C69.6214 62.6163 70.57 62.968 71.7212 62.968C72.2967 62.968 72.8403 62.8721 73.352 62.6802C73.8636 62.4671 74.3006 62.1899 74.663 61.8489C75.0254 61.4864 75.3132 61.0601 75.5264 60.5698C75.7396 60.0795 75.8462 59.5359 75.8462 58.939C75.8462 58.3421 75.7396 57.7985 75.5264 57.3082C75.3345 56.7965 75.0574 56.3595 74.695 55.9971C74.3326 55.6347 73.8956 55.3576 73.384 55.1657C72.8723 54.9525 72.3181 54.846 71.7212 54.846C71.0177 54.846 70.3781 55.0058 69.8026 55.3256C69.227 55.6241 68.7473 56.0184 68.3636 56.5087L64.8462 54.9419L66.1572 43.9419H78.0845V47.1715H69.131L68.3316 52.8634L68.5235 52.9273C68.9925 52.5649 69.5361 52.2558 70.1543 52C70.7725 51.7442 71.5293 51.6163 72.4246 51.6163C73.3413 51.6163 74.2153 51.7975 75.0467 52.1599C75.8995 52.501 76.6456 52.9913 77.2851 53.6308C77.9246 54.2704 78.4363 55.0378 78.82 55.9332C79.2037 56.8285 79.3956 57.8198 79.3956 58.907C79.3956 59.9729 79.2037 60.9642 78.82 61.8808C78.4363 62.7762 77.9033 63.5543 77.2212 64.2151C76.539 64.876 75.7289 65.3983 74.7909 65.782C73.8743 66.1444 72.8617 66.3256 71.7531 66.3256Z" fill="white"/>
<defs>
<linearGradient id="paint0_linear_1136_99" x1="4.8298" y1="55.0623" x2="109.862" y2="55.0623" gradientUnits="userSpaceOnUse">
<stop offset="0.155" stop-color="#7D4FFB"/>
<stop offset="0.82" stop-color="#5B60E3"/>
</linearGradient>
</defs>
</svg>
