<svg width="51" height="51" viewBox="0 0 51 51" fill="none" xmlns="http://www.w3.org/2000/svg">
<rect width="51" height="51" rx="25.5" fill="white"/>
<path d="M16.2445 24.4757C21.9328 21.8438 25.7254 20.1075 27.6223 19.2673C33.0448 16.8678 34.1719 16.4468 34.9136 16.4167C35.0767 16.4104 35.4409 16.4426 35.6822 16.6289C35.8829 16.786 35.9433 17.0034 35.9744 17.1562C36.0025 17.309 36.0443 17.6576 36.0227 17.931C35.7974 21.0533 34.6842 28.6428 34.1102 32.1471C33.8695 33.6298 33.3358 34.1372 32.8104 34.1974C31.6675 34.3285 30.7799 33.4867 29.6552 32.7854C27.8963 31.6876 26.9013 31.0022 25.1923 29.9309C23.2177 28.6929 24.464 27.9597 25.5464 26.7833C25.829 26.4754 30.7683 21.776 30.8544 21.3579C30.8655 21.3056 30.8735 21.1114 30.7542 21.0118C30.638 20.9118 30.4694 20.9508 30.3469 20.9813C30.1723 21.0246 27.4459 22.9182 22.1585 26.662C21.3856 27.2197 20.6804 27.4989 20.0397 27.4995C19.3374 27.5003 17.9742 27.1481 16.9601 26.8439C15.7196 26.4705 14.7327 26.2806 14.8036 25.5973C14.8387 25.2417 15.32 24.8677 16.2445 24.4757Z" fill="#080808"/>
</svg>
